<?xml version="1.0" standalone="no"?><!DOCTYPE svg PUBLIC "-//W3C//DTD SVG 1.1//EN" "http://www.w3.org/Graphics/SVG/1.1/DTD/svg11.dtd"><svg t="1494206152527" class="icon" style="" viewBox="0 0 1024 1024" version="1.1" xmlns="http://www.w3.org/2000/svg" p-id="1935" xmlns:xlink="http://www.w3.org/1999/xlink" width="200" height="200"><defs><style type="text/css"></style></defs><path d="M279.272727 256l23.272727 0c18.618182 0 23.272727-4.654545 23.272727-23.272727L325.818182 69.818182c0-18.618182-4.654545-23.272727-23.272727-23.272727l-23.272727 0c-18.618182 0-23.272727 4.654545-23.272727 23.272727l0 162.909091C256 244.363636 260.654545 256 279.272727 256" p-id="1936"></path><path d="M721.454545 256l23.272727 0c18.618182 0 23.272727-4.654545 23.272727-23.272727L768 69.818182c0-18.618182-4.654545-23.272727-23.272727-23.272727l-23.272727 0c-18.618182 0-23.272727 4.654545-23.272727 23.272727l0 162.909091C698.181818 244.363636 702.836364 256 721.454545 256" p-id="1937"></path><path d="M884.363636 139.636364l-69.818182 0 0 46.545455 69.818182 0c37.236364 0 69.818182 32.581818 69.818182 69.818182l0 46.545455L69.818182 300.218182 69.818182 256c0-37.236364 32.581818-69.818182 69.818182-69.818182l69.818182 0L209.454545 139.636364 139.636364 139.636364c-72.145455 0-116.363636 48.872727-116.363636 116.363636l0 628.363636c0 67.490909 44.218182 93.090909 116.363636 93.090909l744.727273 0c67.490909 0 116.363636-18.618182 116.363636-93.090909L1000.727273 256C993.745455 188.509091 956.509091 139.636364 884.363636 139.636364l6.981818 9.309091L884.363636 139.636364zM884.363636 930.909091 139.636364 930.909091c-37.236364 0-69.818182-9.309091-69.818182-46.545455L69.818182 372.363636l884.363636 0 0 512C954.181818 928.581818 926.254545 930.909091 884.363636 930.909091l-16.290909-9.309091L884.363636 930.909091zM868.072727 921.6" p-id="1938"></path><path d="M372.363636 139.636364l279.272727 0 0 46.545455L372.363636 186.181818 372.363636 139.636364 372.363636 139.636364 372.363636 139.636364zM372.363636 139.636364" p-id="1939"></path><path d="M530.618182 439.854545c-53.527273 0-32.581818 65.163636-100.072727 79.127273l-20.945455 6.981818c-32.581818 6.981818-39.563636 2.327273-39.563636 27.927273 0 25.6 13.963636 27.927273 25.6 27.927273L488.727273 581.818182l0 228.072727c0 32.581818 2.327273 53.527273 34.909091 53.527273 32.581818 0 34.909091-25.6 34.909091-53.527273L558.545455 479.418182C558.545455 446.836364 544.581818 439.854545 530.618182 439.854545L530.618182 439.854545 530.618182 439.854545zM530.618182 439.854545" p-id="1940"></path></svg>